# File created by Blade
# Date/Time:  Tue Sep 30 19:29:15 2014
#---------------------------------------------------------
:version 1.10
:name HOM
:units
  mass 1.0
  length 1.000000
  angle deg
:documentation
     Acclaim Skeleton File
:root
   axis xyz
   order TX TY TZ RX RY RZ
   position 0.000000 0.000000 0.000000
   orientation 0 0 0
:bonedata
   begin
      id 1
      name RightUpLeg_dum
      direction -1.000000 0.000000 0.000000
      length 3.766986
      axis 0.0 0.0 0.0 xyz
   end
   begin
      id 2
      name LeftUpLeg_dum
      direction 1.000000 0.000000 0.000000
      length 3.766986
      axis 0.0 0.0 0.0 xyz
   end
   begin
      id 3
      name Spine_dum
      direction 0.000000 1.000000 0.000000
      length 7.779697
      axis 0.0 0.0 0.0 xyz
   end
   begin
      id 4
      name RightUpLeg
      direction 0.000000 -1.000000 0.000000
      length 18.017682
      axis 0.0 0.0 0.0 xyz
      dof rx ry rz
   end
   begin
      id 5
      name RightLeg
      direction 0.000000 -1.000000 0.000000
      length 16.881075
      axis 0.0 0.0 0.0 xyz
      dof rx ry rz
   end
   begin
      id 6
      name RightFoot
      direction 0.000000 -0.258819 0.965926
      length 5.770812
      axis 15.0 0.0 0.0 xyz
      dof rx ry rz
   end
   begin
      id 7
      name RightToeBase
      direction 0.000000 0.000000 1.000000
      length 2.952750
      axis 0.0 0.0 0.0 xyz
      dof rx ry rz
   end
   begin
      id 8
      name LeftUpLeg
      direction 0.000000 -1.000000 0.000000
      length 18.017682
      axis 0.0 0.0 0.0 xyz
      dof rx ry rz
   end
   begin
      id 9
      name LeftLeg
      direction 0.000000 -1.000000 0.000000
      length 16.881075
      axis 0.0 0.0 0.0 xyz
      dof rx ry rz
   end
   begin
      id 10
      name LeftFoot
      direction 0.000000 -0.258819 0.965926
      length 5.770812
      axis 15.0 0.0 0.0 xyz
      dof rx ry rz
   end
   begin
      id 11
      name LeftToeBase
      direction 0.000000 0.000000 1.000000
      length 2.952750
      axis 0.0 0.0 0.0 xyz
      dof rx ry rz
   end
   begin
      id 12
      name Spine
      direction 0.000000 1.000000 0.000000
      length 0.000000
      axis 0.0 0.0 0.0 xyz
      dof rx ry rz
   end
   begin
      id 13
      name Spine_dum1
      direction 0.000000 1.000000 0.000000
      length 10.941760
      axis 0.0 0.0 0.0 xyz
   end
   begin
      id 14
      name Spine_dum2
      direction 0.000000 1.000000 0.000000
      length 10.941760
      axis 0.0 0.0 0.0 xyz
   end
   begin
      id 15
      name Spine_dum3
      direction 0.000000 1.000000 0.000000
      length 16.646042
      axis 0.0 0.0 0.0 xyz
   end
   begin
      id 16
      name RightShoulder
      direction -1.000000 0.000000 0.000000
      length 7.708937
      axis 0.0 0.0 90.0 xyz
      dof rx ry rz
   end
   begin
      id 17
      name RightArm
      direction -1.000000 0.000000 0.000000
      length 11.521345
      axis 0.0 0.0 90.0 xyz
      dof rx ry rz
   end
   begin
      id 18
      name RightForeArm
      direction -1.000000 0.000000 0.000000
      length 10.175898
      axis 0.0 0.0 90.0 xyz
      dof ry rz rx
   end
   begin
      id 19
      name RightHand
      direction -1.000000 0.000000 0.000000
      length 0.000000
      axis 0.0 0.0 90.0 xyz
      dof rx ry rz
   end
   begin
      id 20
      name RightHand_dum1
      direction -1.000000 0.000000 0.000000
      length 3.937000
      axis 0.0 0.0 90.0 xyz
   end
   begin
      id 21
      name RightHand_dum2
      direction 0.000000 0.000000 0.000000
      length 0.000000
      axis 0.0 0.0 90.0 xyz
   end
   begin
      id 22
      name RightHandThumb1
      direction 0.000000 0.000000 1.000000
      length 3.937000
      axis 0.0 0.0 90.0 xyz
      dof rx rz ry
   end
   begin
      id 23
      name LeftShoulder
      direction 1.000000 0.000000 0.000000
      length 7.708937
      axis 0.0 0.0 -90.0 xyz
      dof rx ry rz
   end
   begin
      id 24
      name LeftArm
      direction 1.000000 0.000000 0.000000
      length 11.521345
      axis 0.0 0.0 -90.0 xyz
      dof rx ry rz
   end
   begin
      id 25
      name LeftForeArm
      direction 1.000000 0.000000 0.000000
      length 10.175898
      axis 0.0 0.0 -90.0 xyz
      dof ry rz rx
   end
   begin
      id 26
      name LeftHand
      direction 1.000000 0.000000 0.000000
      length 0.000000
      axis 0.0 0.0 -90.0 xyz
      dof rx ry rz
   end
   begin
      id 27
      name LeftHand_dum1
      direction 1.000000 0.000000 0.000000
      length 3.937000
      axis 0.0 0.0 -90.0 xyz
   end
   begin
      id 28
      name LeftHand_dum2
      direction 0.000000 0.000000 0.000000
      length 0.000000
      axis 0.0 0.0 -90.0 xyz
   end
   begin
      id 29
      name LeftHandThumb1
      direction 0.000000 0.000000 1.000000
      length 3.937000
      axis 0.0 0.0 -90.0 xyz
      dof rx rz ry
   end
   begin
      id 30
      name Head
      direction 0.000000 1.000000 0.000000
      length 4.527550
      axis 0.0 0.0 0.0 xyz
      dof rx ry rz
   end
:hierarchy
   begin
      root RightUpLeg_dum LeftUpLeg_dum Spine_dum
      RightUpLeg_dum RightUpLeg
      LeftUpLeg_dum LeftUpLeg
      Spine_dum Spine
      RightUpLeg RightLeg
      RightLeg RightFoot
      RightFoot RightToeBase
      LeftUpLeg LeftLeg
      LeftLeg LeftFoot
      LeftFoot LeftToeBase
      Spine Spine_dum1 Spine_dum2 Spine_dum3
      Spine_dum1 RightShoulder
      Spine_dum2 LeftShoulder
      Spine_dum3 Head
      RightShoulder RightArm
      RightArm RightForeArm
      RightForeArm RightHand
      RightHand RightHand_dum1 RightHand_dum2
      RightHand_dum2 RightHandThumb1
      LeftShoulder LeftArm
      LeftArm LeftForeArm
      LeftForeArm LeftHand
      LeftHand LeftHand_dum1 LeftHand_dum2
      LeftHand_dum2 LeftHandThumb1
   end

# File created by Blade
# Date/Time:  Mon Sep 22 16:45:27 2014
# Frame Rate: 120.000 fps
#------------------------------------------------------
:FULLY-SPECIFIED
:DEGREES
1
root 7.720516 37.177262 0.895422 -8.256557 -8.428546 2.142168
RightUpLeg 14.675837 -2.245301 -2.130047
RightLeg -3.925732 -0.000000 0.000000
RightFoot -12.404776 -11.569014 16.021901
RightToeBase 14.192354 -0.000000 -0.000000
LeftUpLeg 13.523815 0.006456 -1.147312
LeftLeg -1.238332 -0.000000 0.000000
LeftFoot -11.506788 17.512379 -17.618131
LeftToeBase 9.915587 -0.000000 -0.000000
Spine 7.565389 -3.280429 -0.816943
RightShoulder -0.136625 -13.067293 -20.112944
RightArm 22.589714 18.020594 40.845530
RightForeArm -2.801465 -0.000000 76.508149
RightHand 0.471185 -0.000000 -8.871061
RightHandThumb1 -24.326973 -0.000000 -32.862282
LeftShoulder -18.577584 26.869675 9.495627
LeftArm 56.815303 -31.736284 -59.869847
LeftForeArm -17.464207 -0.000000 64.391884
LeftHand -20.427161 -0.000000 6.332974
LeftHandThumb1 -26.253704 0.000000 33.147579
Head 10.765915 13.560233 3.718560
2
root 7.719955 37.176948 0.884453 -8.304656 -8.428630 2.139736
RightUpLeg 14.687437 -2.206229 -2.117050
RightLeg -3.885442 -0.000000 0.000000
RightFoot -12.433472 -11.605910 16.010105
RightToeBase 14.163291 -0.000000 -0.000000
LeftUpLeg 13.555647 0.012224 -1.138599
LeftLeg -1.236482 -0.000000 0.000000
LeftFoot -11.508356 17.492174 -17.646419
LeftToeBase 9.968803 -0.000000 -0.000000
Spine 7.591169 -3.339106 -0.818506
RightShoulder 0.110716 -13.208676 -20.001032
RightArm 23.326002 17.641245 41.548219
RightForeArm -2.616680 -0.000000 78.245579
RightHand 0.522143 -0.000000 -9.249425
RightHandThumb1 -24.326973 -0.000000 -32.862282
LeftShoulder -18.534882 26.918366 9.389768
LeftArm 57.115464 -31.009566 -59.894915
LeftForeArm -17.242684 0.000000 65.282794
LeftHand -20.582263 -0.000000 6.421244
LeftHandThumb1 -26.253704 0.000000 33.147579
Head 10.673726 13.744632 3.636770
3
root 7.717344 37.176727 0.872676 -8.360895 -8.433537 2.127892
RightUpLeg 14.711690 -2.170710 -2.090327
RightLeg -3.857540 -0.000000 0.000000
RightFoot -12.475089 -11.622707 16.068924
RightToeBase 14.101276 -0.000000 -0.000000
LeftUpLeg 13.592519 0.039497 -1.113548
LeftLeg -1.230661 -0.000000 0.000000
LeftFoot -11.492494 17.471855 -17.620552
LeftToeBase 9.920340 -0.000000 -0.000000
Spine 7.609095 -3.329648 -0.801055
RightShoulder 0.313846 -13.373550 -19.898478
RightArm 24.108755 17.167446 42.202945
RightForeArm -2.247623 -0.000000 79.884469
RightHand 0.692049 -0.000000 -9.582757
RightHandThumb1 -24.326973 -0.000000 -32.862282
LeftShoulder -18.395302 27.015016 9.329185
LeftArm 57.519204 -30.300234 -60.031178
LeftForeArm -16.942855 -0.000000 66.109650
LeftHand -20.641002 -0.000000 6.531520
LeftHandThumb1 -26.253704 0.000000 33.147579
Head 10.654440 13.856642 3.600860
4
root 7.715145 37.175905 0.858940 -8.422308 -8.442113 2.126841
RightUpLeg 14.805188 -1.907349 -2.023751
RightLeg -3.963473 -0.000000 0.000000
RightFoot -12.516371 -11.887006 16.142584
RightToeBase 14.020878 -0.000000 -0.000000
LeftUpLeg 13.626087 0.082812 -1.094351
LeftLeg -1.214513 -0.000000 0.000000
LeftFoot -11.472199 17.425825 -17.589711
LeftToeBase 9.932279 -0.000000 -0.000000
Spine 7.649080 -3.292267 -0.801897
RightShoulder 0.453409 -13.657226 -19.696200
RightArm 25.082729 16.743111 42.730476
RightForeArm -1.965257 -0.000000 81.425362
RightHand 0.747263 -0.000000 -9.639041
RightHandThumb1 -24.326973 -0.000000 -32.862282
LeftShoulder -18.244542 27.087748 9.334009
LeftArm 57.968158 -29.535974 -60.262072
LeftForeArm -16.520151 -0.000000 66.861434
LeftHand -20.633075 -0.000000 6.555854
LeftHandThumb1 -26.253704 0.000000 33.147579
Head 10.595940 13.915333 3.557481
5
root 7.707944 37.175708 0.852339 -8.515310 -8.436407 2.102038
RightUpLeg 14.874176 -1.882180 -1.981792
RightLeg -3.922819 -0.000000 0.000000
RightFoot -12.539079 -11.888726 16.144021
RightToeBase 13.979668 -0.000000 -0.000000
LeftUpLeg 13.721888 0.096637 -1.050341
LeftLeg -1.230086 -0.000000 0.000000
LeftFoot -11.477868 17.394770 -17.607199
LeftToeBase 9.970080 -0.000000 -0.000000
Spine 7.723833 -3.252347 -0.781152
RightShoulder 0.553164 -13.777645 -19.515674
RightArm 25.989529 16.174441 43.325154
RightForeArm -1.706641 -0.000000 82.949566
RightHand 0.910488 -0.000000 -9.717017
RightHandThumb1 -24.326973 -0.000000 -32.862282
LeftShoulder -18.107818 27.124874 9.343715
LeftArm 58.447330 -28.701077 -60.473039
LeftForeArm -15.968395 -0.000000 67.562527
LeftHand -20.684405 -0.000000 6.806290
LeftHandThumb1 -26.253704 0.000000 33.147579
Head 10.508586 14.024323 3.548455
6
root 7.701960 37.175243 0.843412 -8.615507 -8.436112 2.088741
RightUpLeg 14.958218 -1.836249 -1.947695
RightLeg -3.908589 -0.000000 0.000000
RightFoot -12.569054 -11.927954 16.137976
RightToeBase 13.943693 -0.000000 -0.000000
LeftUpLeg 13.818275 0.102571 -1.020547
LeftLeg -1.235123 -0.000000 0.000000
LeftFoot -11.482053 17.393744 -17.609324
LeftToeBase 9.960995 -0.000000 -0.000000
Spine 7.801490 -3.180112 -0.764971
RightShoulder 0.642470 -13.950055 -19.337993
RightArm 27.011630 15.655272 43.988249
RightForeArm -1.443620 -0.000000 84.384260
RightHand 0.951254 0.000000 -9.734103
RightHandThumb1 -24.326973 -0.000000 -32.862282
LeftShoulder -17.877491 27.255345 9.350403
LeftArm 58.929483 -27.973295 -60.642403
LeftForeArm -15.280935 -0.000000 68.282845
LeftHand -20.769568 -0.000000 6.965613
LeftHandThumb1 -26.253704 0.000000 33.147579
Head 10.464506 14.088504 3.532687
7
root 7.702273 37.175197 0.826528 -8.660345 -8.414274 2.069047
RightUpLeg 14.967456 -1.787484 -1.914115
RightLeg -3.874760 -0.000000 0.000000
RightFoot -12.613414 -11.972682 16.205957
RightToeBase 13.881750 -0.000000 -0.000000
LeftUpLeg 13.828464 0.059953 -1.007363
LeftLeg -1.218587 -0.000000 0.000000
LeftFoot -11.472424 17.409184 -17.592940
LeftToeBase 9.933541 -0.000000 -0.000000
Spine 7.841075 -3.218716 -0.717998
RightShoulder 0.842042 -14.020776 -19.234429
RightArm 27.989593 15.093118 44.696752
RightForeArm -1.186270 -0.000000 85.765607
RightHand 1.088624 -0.000000 -9.757945
RightHandThumb1 -24.326973 -0.000000 -32.862282
LeftShoulder -17.736641 27.420345 9.248186
LeftArm 59.485517 -27.277815 -60.887830
LeftForeArm -14.449853 0.000000 69.045214
LeftHand -21.069508 -0.000000 7.266066
LeftHandThumb1 -26.253704 0.000000 33.147579
Head 10.376399 14.258002 3.399753
8
root 7.701292 37.174703 0.813815 -8.733954 -8.406235 2.056305
RightUpLeg 15.013557 -1.748993 -1.888824
RightLeg -3.854472 -0.000000 0.000000
RightFoot -12.639206 -12.006801 16.217730
RightToeBase 13.793325 -0.000000 -0.000000
LeftUpLeg 13.883979 0.051619 -0.991034
LeftLeg -1.218790 -0.000000 0.000000
LeftFoot -11.464356 17.410474 -17.560650
LeftToeBase 9.938901 -0.000000 -0.000000
Spine 7.924682 -3.234176 -0.682784
RightShoulder 1.015108 -14.053798 -19.141955
RightArm 29.018606 14.480333 45.488705
RightForeArm -0.963439 -0.000000 87.096519
RightHand 1.173564 0.000000 -9.852062
RightHandThumb1 -24.326973 -0.000000 -32.862282
LeftShoulder -17.581056 27.407119 9.251971
LeftArm 59.853287 -26.414048 -60.997650
LeftForeArm -13.232457 -0.000000 69.800942
LeftHand -21.467523 0.000000 7.892079
LeftHandThumb1 -26.253704 0.000000 33.147579
Head 10.250933 14.381231 3.310844
9
root 7.701217 37.174154 0.797265 -8.801593 -8.368934 2.033998
RightUpLeg 15.043760 -1.744178 -1.862686
RightLeg -3.809503 -0.000000 0.000000
RightFoot -12.681771 -12.031631 16.255998
RightToeBase 13.844320 -0.000000 -0.000000
LeftUpLeg 13.923040 -0.018430 -0.976395
LeftLeg -1.209016 -0.000000 0.000000
LeftFoot -11.487881 17.428044 -17.580585
LeftToeBase 9.985769 -0.000000 -0.000000
Spine 8.022552 -3.318700 -0.633331
RightShoulder 1.233766 -14.038648 -19.097883
RightArm 30.074520 13.816708 46.311932
RightForeArm -0.798445 -0.000000 88.355141
RightHand 1.308672 -0.000000 -10.021171
RightHandThumb1 -24.326973 -0.000000 -32.862282
LeftShoulder -17.452640 27.428308 9.179945
LeftArm 60.253775 -25.617989 -61.030807
LeftForeArm -12.176193 -0.000000 70.533814
LeftHand -22.029650 -0.000000 8.809917
LeftHandThumb1 -26.253704 0.000000 33.147579
Head 10.081730 14.567032 3.153385
